<svg height="512" viewBox="0 0 64 64" width="512" xmlns="http://www.w3.org/2000/svg"><path d="m52.77 27.27a21.76 21.76 0 0 0 -41.54 0l-.23.73 8 33h26l8-33z" fill="#4891d3"/><path d="m27.23 49.5-2.9-2.75 33.06-34.8 2.83-.07.76 2.1z" fill="#e59730"/><path d="m35 53h-6v-48l3-2 3 1z" fill="#fcbc04"/><path d="m35 28-3 5v-30l3 1z" fill="#f9e109"/><path d="m37.7 53.15-5.91-1.04 8.34-47.27 3.13-.47 2.95.52z" fill="#fcbc04"/><path d="m40.68 18.05 2.58-13.68-3.13.47-3.62 20.52z" fill="#f9e109"/><path d="m25.18 49.35 5.23 2.93 23.44-41.89-1.65-3.21-3.1-.59z" fill="#f9e109"/><path d="m53.85 10.39-1.65-3.21-.27-.05-24.31 43.59 2.79 1.56z" fill="#fcbc04"/><path d="m33.44 55.72-5.86 1.33-10.58-46.82 2.49-2.61 3.15.31z" fill="#fcbc04"/><path d="m33.44 55.72-2.74.62-11.21-48.72 3.15.31z" fill="#f9e109"/><path d="m25.46 56.61-3.86 1.04-12.54-46.33 1.41-2.45 2.19.44z" fill="#e59730"/><path d="m10.47 8.87 1.53 6.13 1.73-1.73-1.07-3.96z" fill="#fcbc04"/><path d="m27.69 54-9.05-40.07-3.15-.31-2.49 2.61 8.54 37.77z" fill="#fcbc04"/><path d="m27.69 54-9.05-40.07-3.15-.31 9.27 40.38z" fill="#f9e109"/><path d="m46 28a14 14 0 0 1 -28 0h-7l8 33h26l8-33z" fill="#aae1f9"/><path d="m38.73 56a20 20 0 0 1 -19.44-15.29l-3.08-12.71h-5.21l8 33h26l1.21-5z" fill="#57b7eb"/><circle cx="32" cy="51" fill="#f8664f" r="5"/><path d="m27.2 52.32a5 5 0 0 0 4.8 3.68 4.92 4.92 0 0 0 2.2-.53 19.9 19.9 0 0 1 -7-3.15z" fill="#cc5144"/><path d="m48 25-.3 2.95 13.28-13.97-.76-2.1z" fill="#fcbc04"/></svg>