<svg id="Calque_1" data-name="Calque 1" xmlns="http://www.w3.org/2000/svg" viewBox="0 0 416.19 457.15"><defs><style>.cls-1{font-size:55.91px;}.cls-1,.cls-2{fill:#6cc6d7;font-family:SignPainter-HouseScriptSemibold, SignPainter;font-weight:600;}.cls-2{font-size:111.82px;}.cls-3{fill:#6ec6d9;}</style></defs><text class="cls-1" transform="translate(80.64 181.4) rotate(-56.5)"> </text><text class="cls-1" transform="translate(87.07 171.65) rotate(-52.81)"> </text><text class="cls-1" transform="matrix(0.65, -0.76, 0.76, 0.65, 94.13, 162.33)"> </text><text class="cls-1" transform="translate(101.75 153.48) rotate(-45.46)"> </text><text class="cls-1" transform="matrix(0.75, -0.67, 0.67, 0.75, 109.95, 145.13)"> </text><text class="cls-1" transform="matrix(0.79, -0.62, 0.62, 0.79, 118.66, 137.31)"> </text><text class="cls-1" transform="translate(127.83 130.1) rotate(-34.42)"> </text><text class="cls-2" transform="matrix(0.9, -0.43, 0.43, 0.9, 136.03, 122.67)">P</text><text class="cls-2" transform="matrix(0.97, -0.23, 0.23, 0.97, 176.34, 103.85)">e</text><text class="cls-2" transform="translate(209.8 96.39) rotate(-4.18)">t</text><text class="cls-2" transform="translate(232.57 94.7) rotate(2.7)">i</text><text class="cls-2" transform="matrix(0.99, 0.17, -0.17, 0.99, 253.88, 95.59)">t</text><text class="cls-2" transform="translate(274.11 98.32) rotate(18)">e</text><circle class="cls-3" cx="231.84" cy="265" r="147.81"/></svg>